# xmcd CD database file
#
# Track frame offsets:
#	150
#	16514
#	33082
#	49323
#	64150
#	81491
#	96760
#	113975
#	131309
#	146739
#	163921
#	178393
#	189485
#	209571
#
# Disc length: 2980 seconds
#
# Revision: 3
# Processed by: cddbd v1.4PL0 Copyright (c) Steve Scherf et al.
# Submitted via: CDex 1.40Beta8
#
DISCID=c90ba20e
DTITLE=Milionário e José Rico - Sentimental Demais
DYEAR=1900
DGENRE=
TTITLE0=Quem Disse Que Esqueci
TTITLE1=Aprendi a Viver
TTITLE2=Brigas
TTITLE3=Um Beijo e Um Deus
TTITLE4=Pra Sempre
TTITLE5=Tô Com Ela
TTITLE6=Te Amar não faz sentido
TTITLE7=Intimidade
TTITLE8=Ausência
TTITLE9=Linda Morena
TTITLE10=Tô de Olho
TTITLE11=Sentimental demais
TTITLE12=Tributo aos Amigos
TTITLE13=Eu levo a Vida Sonhando
EXTD=
EXTT0=
EXTT1=
EXTT2=
EXTT3=
EXTT4=
EXTT5=
EXTT6=
EXTT7=
EXTT8=
EXTT9=
EXTT10=
EXTT11=
EXTT12=
EXTT13=
PLAYORDER=
